<svg width="12" height="17" xmlns="http://www.w3.org/2000/svg"><path d="M6.13 14.996a2 2 0 0 1-2.126-2.126 2.008 2.008 0 0 1 1.866-1.866 2 2 0 0 1 2.126 2.126 2.008 2.008 0 0 1-1.866 1.866M6 5.1c-.92 0-1.791.212-2.571.583V4.287c0-1.366 1.07-2.52 2.447-2.584a2.574 2.574 0 0 1 2.59 1.826c.13.431.537.721.99.721a.743.743 0 0 0 .735-.892A4.286 4.286 0 0 0 5.875.002c-2.325.066-4.16 1.987-4.16 4.294v2.598A5.904 5.904 0 0 0 0 11.05C0 14.331 2.692 17 6 17s6-2.669 6-5.95C12 7.77 9.308 5.1 6 5.1" fill="#FFF" fill-rule="evenodd"/></svg>